<svg xmlns="http://www.w3.org/2000/svg" width="35" height="35" viewBox="0 0 35 35">
  <path id="Calender" d="M31.75,5.5h-3.5V3.75a1.75,1.75,0,0,0-3.5,0V5.5H14.25V3.75a1.75,1.75,0,0,0-3.5,0V5.5H7.25A5.25,5.25,0,0,0,2,10.75v21A5.25,5.25,0,0,0,7.25,37h24.5A5.25,5.25,0,0,0,37,31.75v-21A5.25,5.25,0,0,0,31.75,5.5ZM33.5,31.75a1.75,1.75,0,0,1-1.75,1.75H7.25A1.75,1.75,0,0,1,5.5,31.75V19.5h28ZM33.5,16H5.5V10.75A1.75,1.75,0,0,1,7.25,9h3.5v1.75a1.75,1.75,0,0,0,3.5,0V9h10.5v1.75a1.75,1.75,0,0,0,3.5,0V9h3.5a1.75,1.75,0,0,1,1.75,1.75Z" transform="translate(-2 -2)" fill="#fff"/>
</svg>
