<svg xmlns="http://www.w3.org/2000/svg" width="19.083" height="18.256" viewBox="0 0 19.083 18.256">
  <path id="XMLID_16_" d="M18.021,13.867a.821.821,0,0,0-.663-.559l-5.245-.762L9.767,7.794a.821.821,0,0,0-1.472,0L5.949,12.547.7,13.309a.821.821,0,0,0-.455,1.4l3.8,3.7-.9,5.224A.821.821,0,0,0,4.34,24.5l4.691-2.466L13.722,24.5a.832.832,0,0,0,.384.094.822.822,0,0,0,.8-1l-.889-5.179,3.8-3.7A.821.821,0,0,0,18.021,13.867Z" transform="translate(0.51 -6.836)" fill="none" stroke="#43a6b5" stroke-width="1"/>
</svg>
