<svg id="heart-svgrepo-com" xmlns="http://www.w3.org/2000/svg" width="21.56" height="19.653" viewBox="0 0 21.56 19.653">
  <path id="Path_100" data-name="Path 100" d="M19.679,19.719a6.429,6.429,0,0,0-8.9-.184,6.429,6.429,0,0,0-8.9,9.275L10.4,37.332a.535.535,0,0,0,.756,0l8.522-8.522A6.436,6.436,0,0,0,19.679,19.719Zm-.756,8.335L10.779,36.2,2.635,28.054a5.36,5.36,0,0,1,7.383-7.766L8.471,21.836a.535.535,0,1,0,.756.756l2.118-2.118a5.359,5.359,0,1,1,7.579,7.58Z" transform="translate(0 -17.836)" fill="#fe2290"/>
  <path id="Path_101" data-name="Path 101" d="M274.431,49.05a4.688,4.688,0,0,0-1.621-.287.535.535,0,0,0,0,1.069,3.624,3.624,0,0,1,1.252.221.535.535,0,1,0,.368-1Z" transform="translate(-257.721 -47.11)" fill="#fe2290"/>
  <path id="Path_102" data-name="Path 102" d="M332.758,76.561a.535.535,0,1,0-.816.691,3.636,3.636,0,0,1,.86,2.348.535.535,0,1,0,1.069,0A4.707,4.707,0,0,0,332.758,76.561Z" transform="translate(-314.079 -73.243)" fill="#fe2290"/>
  <path id="Path_103" data-name="Path 103" d="M169.14,296.071a.535.535,0,0,0-.756.756l.748.748a.535.535,0,1,0,.756-.756Z" transform="translate(-159.235 -281.05)" fill="#fe2290"/>
  <path id="Path_104" data-name="Path 104" d="M93.388,220.319a.535.535,0,1,0-.756.756l2.82,2.82a.535.535,0,1,0,.756-.756Z" transform="translate(-87.532 -209.347)" fill="#fe2290"/>
</svg>
