<svg id="hand-svgrepo-com" xmlns="http://www.w3.org/2000/svg" width="22.53" height="21.332" viewBox="0 0 22.53 21.332">
  <path id="Path_17" data-name="Path 17" d="M6.486,202.745a1.53,1.53,0,0,1,0,2.16L2.16,209.231,0,207.071l4.327-4.327A1.53,1.53,0,0,1,6.486,202.745Z" transform="translate(15.597 -193.547)" fill="#ffcd00"/>
  <path id="Path_18" data-name="Path 18" d="M33.688,121.035a1.529,1.529,0,0,1,0,2.16l-5.615,5.616-2.161-2.161,5.616-5.616A1.53,1.53,0,0,1,33.688,121.035Z" transform="translate(-12.803 -115.613)" fill="#ffcd00"/>
  <path id="Path_19" data-name="Path 19" d="M63.205,41.74a1.53,1.53,0,0,1,0,2.161l-6.793,6.793-2.16-2.16,6.793-6.793A1.53,1.53,0,0,1,63.205,41.74Z" transform="translate(-43.63 -39.984)" fill="#ffcd00"/>
  <path id="Path_20" data-name="Path 20" d="M111.4,144.114l-3.2,3.2-2.487-2.487-.811.811a5.6,5.6,0,0,0,0,7.917l4.193,4.193a5.6,5.6,0,0,0,7.916,0l4.009-4.009Z" transform="translate(-103.26 -138.052)" fill="#ffda44"/>
  <path id="Path_21" data-name="Path 21" d="M141.306,13.4a1.528,1.528,0,0,1,0,2.16l-5.615,5.616-2.161-2.161,5.615-5.615A1.529,1.529,0,0,1,141.306,13.4Z" transform="translate(-125.395 -12.957)" fill="#ffcd00"/>
  <path id="Path_22" data-name="Path 22" d="M321.545,88.761a1.529,1.529,0,0,1,0,2.16L318.7,93.764l-2.16-2.16,2.842-2.842a1.528,1.528,0,0,1,2.16,0Z" transform="translate(-314.092 -84.831)" fill="#ffcd00"/>
</svg>
