<svg xmlns="http://www.w3.org/2000/svg" width="24.058" height="30.001" viewBox="0 0 24.058 30.001">
  <g id="hospital" transform="translate(-50.709)">
    <g id="Group_60" data-name="Group 60" transform="translate(50.709)">
      <g id="Group_59" data-name="Group 59">
        <path id="Path_23" data-name="Path 23" d="M72.268,3.928H67.32V.654A.654.654,0,0,0,66.666,0H58.81a.654.654,0,0,0-.654.654V3.928H53.209a2.5,2.5,0,0,0-2.5,2.5V29.347a.654.654,0,0,0,.654.654h22.75a.654.654,0,0,0,.654-.654V6.428A2.5,2.5,0,0,0,72.268,3.928Zm-12.8-2.62h6.548V7.856H59.464Zm2.62,27.385H58.6V25.205h3.488Zm4.8,0H63.392V25.205H66.88Zm1.308,0V24.551a.654.654,0,0,0-.654-.654H57.943a.654.654,0,0,0-.654.654v4.142H52.017V6.428a1.193,1.193,0,0,1,1.192-1.192h4.947V8.51a.654.654,0,0,0,.654.654h7.856a.654.654,0,0,0,.654-.654V5.236h4.947a1.193,1.193,0,0,1,1.192,1.192V28.693Z" transform="translate(-50.709)" fill="#fff"/>
        <path id="Path_24" data-name="Path 24" d="M115.168,192.834h-3.083a.461.461,0,0,0-.461.461v3.083a.461.461,0,0,0,.461.461h3.083a.461.461,0,0,0,.461-.461V193.3A.461.461,0,0,0,115.168,192.834Z" transform="translate(-108.054 -181.535)" fill="#fff"/>
        <path id="Path_25" data-name="Path 25" d="M225.36,192.834h-3.083a.461.461,0,0,0-.461.461v3.083a.461.461,0,0,0,.461.461h3.083a.461.461,0,0,0,.461-.461V193.3A.461.461,0,0,0,225.36,192.834Z" transform="translate(-211.789 -181.535)" fill="#fff"/>
        <path id="Path_26" data-name="Path 26" d="M335.551,192.834h-3.083a.461.461,0,0,0-.461.461v3.083a.461.461,0,0,0,.461.461h3.083a.461.461,0,0,0,.461-.461V193.3A.461.461,0,0,0,335.551,192.834Z" transform="translate(-315.523 -181.535)" fill="#fff"/>
        <path id="Path_27" data-name="Path 27" d="M115.168,303.025h-3.083a.461.461,0,0,0-.461.461v3.083a.461.461,0,0,0,.461.461h3.083a.461.461,0,0,0,.461-.461v-3.083A.461.461,0,0,0,115.168,303.025Z" transform="translate(-108.054 -285.269)" fill="#fff"/>
        <path id="Path_28" data-name="Path 28" d="M225.36,303.025h-3.083a.461.461,0,0,0-.461.461v3.083a.461.461,0,0,0,.461.461h3.083a.461.461,0,0,0,.461-.461v-3.083A.461.461,0,0,0,225.36,303.025Z" transform="translate(-211.789 -285.269)" fill="#fff"/>
        <path id="Path_29" data-name="Path 29" d="M335.551,303.025h-3.083a.461.461,0,0,0-.461.461v3.083a.461.461,0,0,0,.461.461h3.083a.461.461,0,0,0,.461-.461v-3.083A.461.461,0,0,0,335.551,303.025Z" transform="translate(-315.523 -285.269)" fill="#fff"/>
        <path id="Path_30" data-name="Path 30" d="M226.632,43.763a.654.654,0,0,0-.654.654v.71h-1.2v-.71a.654.654,0,0,0-1.308,0v2.727a.654.654,0,1,0,1.308,0v-.71h1.2v.71a.654.654,0,0,0,1.308,0V44.417A.654.654,0,0,0,226.632,43.763Z" transform="translate(-213.351 -41.199)" fill="#fff"/>
      </g>
    </g>
  </g>
</svg>
