<svg xmlns="http://www.w3.org/2000/svg" width="24" height="28.364" viewBox="0 0 24 28.364">
  <path id="Path_35" data-name="Path 35" d="M55.661,13.152a7.273,7.273,0,1,0-8.552,0,12.02,12.02,0,0,0-7.724,11.212,4,4,0,0,0,4,4h16a4,4,0,0,0,4-4A12.02,12.02,0,0,0,55.661,13.152ZM46.294,7.273a5.091,5.091,0,1,1,5.091,5.091A5.1,5.1,0,0,1,46.294,7.273ZM59.385,26.182h-16a1.82,1.82,0,0,1-1.818-1.818,9.818,9.818,0,1,1,19.636,0A1.82,1.82,0,0,1,59.385,26.182Z" transform="translate(-39.385)" fill="#b6f4fe"/>
</svg>
