<svg xmlns="http://www.w3.org/2000/svg" width="30" height="30" viewBox="0 0 30 30">
  <path id="stethoscope-svgrepo-com" d="M27.5,11A4.489,4.489,0,0,0,26,19.724V22.25a6.75,6.75,0,1,1-13.5,0v-.885A9.007,9.007,0,0,0,20,12.5v-9A1.5,1.5,0,0,0,18.5,2h-3a1.5,1.5,0,0,0,0,3H17v7.5a6,6,0,1,1-12,0V5H6.5a1.5,1.5,0,0,0,0-3h-3A1.5,1.5,0,0,0,2,3.5v9a9.007,9.007,0,0,0,7.5,8.865v.885a9.75,9.75,0,1,0,19.5,0V19.724A4.489,4.489,0,0,0,27.5,11Zm0,6A1.5,1.5,0,1,1,29,15.5,1.5,1.5,0,0,1,27.5,17Z" transform="translate(-2 -2)" fill="#b6f4fe"/>
</svg>
