<svg xmlns="http://www.w3.org/2000/svg" width="31.333" height="28.681" viewBox="0 0 31.333 28.681">
  <g id="wallet-svgrepo-com" transform="translate(0.5 -16.985)">
    <g id="Group_62" data-name="Group 62" transform="translate(0 17.485)">
      <g id="Group_61" data-name="Group 61">
        <path id="Path_31" data-name="Path 31" d="M29.358,18.46A3.311,3.311,0,0,0,27,17.485H5.893a.569.569,0,0,0-.569.569v2.313H3.648a.569.569,0,0,0-.569.569v2.072H1.8a.569.569,0,0,0-.569.569v6.6H.569A.569.569,0,0,0,0,30.75v6.674a.569.569,0,0,0,.569.569h.658v6.6a.569.569,0,0,0,.569.569H27a3.334,3.334,0,0,0,3.33-3.33V20.815A3.308,3.308,0,0,0,29.358,18.46Zm-28.22,18.4V31.319H4.361a2.768,2.768,0,1,1,0,5.536ZM29.2,41.836A2.195,2.195,0,0,1,27,44.028H2.364V37.992h2a3.906,3.906,0,1,0,0-7.811h-2V24.145H27a3.315,3.315,0,0,0,2.192-.827ZM27.378,22.975V20.936a.569.569,0,0,0-.569-.569H24.562a.569.569,0,0,0,0,1.138H26.24v1.5H4.217V21.5H20.5a.569.569,0,0,0,0-1.138H6.461V18.623H27a2.192,2.192,0,0,1,.375,4.352Z" transform="translate(0 -17.485)" fill="#b6f4fe" stroke="#b6f4fe" stroke-width="1"/>
        <path id="Path_32" data-name="Path 32" d="M56.275,229.964h0c.014.01.008.005,0,0a.57.57,0,1,0-.087-.072A.561.561,0,0,0,56.275,229.964Z" transform="translate(-51.777 -212.89)" fill="#b6f4fe" stroke="#b6f4fe" stroke-width="1"/>
        <path id="Path_33" data-name="Path 33" d="M291.149,55.628a.571.571,0,1,0,.123.185A.59.59,0,0,0,291.149,55.628Z" transform="translate(-268.171 -52.588)" fill="#b6f4fe" stroke="#b6f4fe" stroke-width="1"/>
        <path id="Path_34" data-name="Path 34" d="M304.557,59.889Z" transform="translate(-281.456 -56.664)" fill="#b6f4fe" stroke="#b6f4fe" stroke-width="1"/>
      </g>
    </g>
  </g>
</svg>
