<svg xmlns="http://www.w3.org/2000/svg" xmlns:xlink="http://www.w3.org/1999/xlink" width="63" height="63" viewBox="0 0 63 63">
  <defs>
    <clipPath id="clip-path">
      <rect id="Rectangle_66" data-name="Rectangle 66" width="63" height="63" transform="translate(27.741 19.812)" fill="#fff" stroke="#fff" stroke-width="1"/>
    </clipPath>
  </defs>
  <g id="Mask_Group_10" data-name="Mask Group 10" transform="translate(-27.741 -19.812)" clip-path="url(#clip-path)">
    <path id="whatsapp-svgrepo-com" d="M10.256,35.163a24.9,24.9,0,1,1,11.6,21.057,2.931,2.931,0,0,0-2.406-.333l-8.437,2.518,3.176-7.433a2.93,2.93,0,0,0-.2-2.7A24.778,24.778,0,0,1,10.256,35.163ZM35.163,4.4A30.776,30.776,0,0,0,8.218,50.027L3.166,61.848A2.93,2.93,0,0,0,6.7,65.808l13.184-3.934A30.769,30.769,0,1,0,35.163,4.4ZM41.88,41.558,38.029,44.27a27.363,27.363,0,0,1-5.8-4.462,29.893,29.893,0,0,1-4.757-6.2l2.447-2.077a2.93,2.93,0,0,0,.691-3.61l-3.118-5.86a2.93,2.93,0,0,0-4.514-.831l-.925.807A7.8,7.8,0,0,0,19.607,30.4a35.306,35.306,0,0,0,8.48,13.554,30.645,30.645,0,0,0,13.869,8.22,7.552,7.552,0,0,0,6.646-1.6l1.733-1.412a2.93,2.93,0,0,0-.351-4.789l-4.918-2.93A2.931,2.931,0,0,0,41.88,41.558Z" transform="translate(24.811 16.149)" fill="#fff" fill-rule="evenodd"/>
  </g>
</svg>
